REM DIRINDEX 1\2,1\3
REM DIRNAME cjc133,folder01,folder02
TITLE ""
FILE "DISC1Track05.mp3" MP3
  TRACK 01 AUDIO
    TITLE "0:"
    INDEX 01 00:00:00
  TRACK 02 AUDIO
    TITLE "3:cjc133_0186"
    INDEX 01 00:00:21
  TRACK 03 AUDIO
    TITLE "0:"
    INDEX 01 00:01:05
  TRACK 04 AUDIO
    TITLE "2:cjc133_0187"
    INDEX 01 00:01:54
  TRACK 05 AUDIO
    TITLE "2:cjc133_0188"
    INDEX 01 00:04:17
  TRACK 06 AUDIO
    TITLE "2:cjc133_0189"
    INDEX 01 00:06:61
  TRACK 07 AUDIO
    TITLE "0:"
    INDEX 01 00:08:36
  TRACK 08 AUDIO
    TITLE "2:cjc133_0190"
    INDEX 01 00:09:14
  TRACK 09 AUDIO
    TITLE "2:cjc133_0191"
    INDEX 01 00:10:68
  TRACK 10 AUDIO
    TITLE "2:cjc133_0192"
    INDEX 01 00:13:73
  TRACK 11 AUDIO
    TITLE "0:"
    INDEX 01 00:16:06
  TRACK 12 AUDIO
    TITLE "2:cjc133_0193"
    INDEX 01 00:16:51
  TRACK 13 AUDIO
    TITLE "2:cjc133_0194"
    INDEX 01 00:18:11
  TRACK 14 AUDIO
    TITLE "2:cjc133_0195"
    INDEX 01 00:20:69
  TRACK 15 AUDIO
    TITLE "0:"
    INDEX 01 00:22:56
  TRACK 16 AUDIO
    TITLE "2:cjc133_0196"
    INDEX 01 00:23:36
  TRACK 17 AUDIO
    TITLE "2:cjc133_0197"
    INDEX 01 00:24:74
  TRACK 18 AUDIO
    TITLE "2:cjc133_0198"
    INDEX 01 00:27:69
  TRACK 19 AUDIO
    TITLE "0:"
    INDEX 01 00:29:62
  TRACK 20 AUDIO
    TITLE "2:cjc133_0199"
    INDEX 01 00:30:38
  TRACK 21 AUDIO
    TITLE "2:cjc133_0200"
    INDEX 01 00:32:50
  TRACK 22 AUDIO
    TITLE "2:cjc133_0201"
    INDEX 01 00:35:70
  TRACK 23 AUDIO
    TITLE "0:"
    INDEX 01 00:38:18
  TRACK 24 AUDIO
    TITLE "2:cjc133_0202"
    INDEX 01 00:38:63
  TRACK 25 AUDIO
    TITLE "2:cjc133_0203"
    INDEX 01 00:40:38
  TRACK 26 AUDIO
    TITLE "2:cjc133_0204"
    INDEX 01 00:43:09
  TRACK 27 AUDIO
    TITLE "0:"
    INDEX 01 00:44:63
  TRACK 28 AUDIO
    TITLE "2:cjc133_0205"
    INDEX 01 00:45:32
  TRACK 29 AUDIO
    TITLE "2:cjc133_0206"
    INDEX 01 00:47:09
  TRACK 30 AUDIO
    TITLE "2:cjc133_0207"
    INDEX 01 00:49:65
  TRACK 31 AUDIO
    TITLE "0:"
    INDEX 01 00:51:54
  TRACK 32 AUDIO
    TITLE "2:cjc133_0208"
    INDEX 01 00:52:32
  TRACK 33 AUDIO
    TITLE "2:cjc133_0209"
    INDEX 01 00:54:42
  TRACK 34 AUDIO
    TITLE "2:cjc133_0210"
    INDEX 01 00:57:62
  TRACK 35 AUDIO
    TITLE "0:"
    INDEX 01 01:00:23
  TRACK 36 AUDIO
    TITLE "2:cjc133_0211"
    INDEX 01 01:01:03
  TRACK 37 AUDIO
    TITLE "2:cjc133_0212"
    INDEX 01 01:02:03
  TRACK 38 AUDIO
    TITLE "2:cjc133_0213"
    INDEX 01 01:05:28
  TRACK 39 AUDIO
    TITLE "0:"
    INDEX 01 01:07:59
  TRACK 40 AUDIO
    TITLE "2:cjc133_0214"
    INDEX 01 01:08:38
  TRACK 41 AUDIO
    TITLE "2:cjc133_0215"
    INDEX 01 01:10:14
  TRACK 42 AUDIO
    TITLE "2:cjc133_0216"
    INDEX 01 01:13:53
  TRACK 43 AUDIO
    TITLE "0:"
    INDEX 01 01:16:20
  TRACK 44 AUDIO
    TITLE "2:cjc133_0217"
    INDEX 01 01:16:73
  TRACK 45 AUDIO
    TITLE "2:cjc133_0218"
    INDEX 01 01:18:17
  TRACK 46 AUDIO
    TITLE "2:cjc133_0219"
    INDEX 01 01:21:59
  TRACK 47 AUDIO
    TITLE "0:"
    INDEX 01 01:24:30
  TRACK 48 AUDIO
    TITLE "2:cjc133_0220"
    INDEX 01 01:25:04
  TRACK 49 AUDIO
    TITLE "2:cjc133_0221"
    INDEX 01 01:26:32
  TRACK 50 AUDIO
    TITLE "2:cjc133_0222"
    INDEX 01 01:30:03
  TRACK 51 AUDIO
    TITLE "0:"
    INDEX 01 01:32:57
  TRACK 52 AUDIO
    TITLE "2:cjc133_0223"
    INDEX 01 01:33:31
  TRACK 53 AUDIO
    TITLE "2:cjc133_0224"
    INDEX 01 01:34:44
  TRACK 54 AUDIO
    TITLE "2:cjc133_0225"
    INDEX 01 01:38:14
  TRACK 55 AUDIO
    TITLE "0:"
    INDEX 01 01:40:62
  TRACK 56 AUDIO
    TITLE "2:cjc133_0226"
    INDEX 01 01:41:42
  TRACK 57 AUDIO
    TITLE "2:cjc133_0227"
    INDEX 01 01:43:21
  TRACK 58 AUDIO
    TITLE "2:cjc133_0228"
    INDEX 01 01:47:03
  TRACK 59 AUDIO
    TITLE "0:"
    INDEX 01 01:50:02
  TRACK 60 AUDIO
    TITLE "2:cjc133_0229"
    INDEX 01 01:50:54
  TRACK 61 AUDIO
    TITLE "2:cjc133_0230"
    INDEX 01 01:52:65
  TRACK 62 AUDIO
    TITLE "2:cjc133_0231"
    INDEX 01 01:56:14
  TRACK 63 AUDIO
    TITLE "0:"
    INDEX 01 01:58:38
